PathFileType	4	(X/Y/Z)	51_1_23_p0_0-490.trc
DataRate	CameraRate	NumFrames	NumMarkers	Units	OrigDataRate	OrigDataStartFrame	OrigNumFrames
59.0	59.0	7	27	m	59.0	245	491
Frame#	Time	RHip			RKnee			RAnkle			RBigToe			RSmallToe			RHeel			LHip			LKnee			LAnkle			LBigToe			LSmallToe			LHeel			Neck			Head			Nose			RShoulder			RElbow			RWrist			RThumb			RIndex			RPinky			LShoulder			LElbow			LWrist			LThumb			LIndex			LPinky			
		X1	Y1	Z1	X2	Y2	Z2	X3	Y3	Z3	X4	Y4	Z4	X5	Y5	Z5	X6	Y6	Z6	X7	Y7	Z7	X8	Y8	Z8	X9	Y9	Z9	X10	Y10	Z10	X11	Y11	Z11	X12	Y12	Z12	X13	Y13	Z13	X14	Y14	Z14	X15	Y15	Z15	X16	Y16	Z16	X17	Y17	Z17	X18	Y18	Z18	X19	Y19	Z19	X20	Y20	Z20	X21	Y21	Z21	X22	Y22	Z22	X23	Y23	Z23	X24	Y24	Z24	X25	Y25	Z25	X26	Y26	Z26	X27	Y27	Z27	
245	4.1525423728813555	0.11339996202262857	0.4789723906591268	0.5504533964249155	0.1080020005883221	0.5930354563280752	1.0422374673226888	0.09333918034723111	0.6478831363950917	1.4842113463086686	0.05309163019126098	0.5107099712852621	1.5151073025633948	0.11457186247345048	0.5021417408845106	1.511307801937387	0.07144917596546592	0.6801375337778746	1.5411179217064175	-0.08284286458329526	0.4787175980288547	0.5546878749727107	-0.12189707317848401	0.5921987190455906	1.0487100494217552	-0.13302360507085761	0.630091611877099	1.4843708796311301	-0.10793605711834596	0.5036744228096565	1.5202481300305424	-0.16170493063970515	0.5193350585687109	1.5084863461357136	-0.12839490639666676	0.666350930570493	1.5393298911749387	0.003247606324385195	0.3828956631378998	-0.007273473367832033	-0.04150282325385361	0.2974833425821514	-0.22535011824536874	-0.04796435005681153	0.26855608778011314	-0.10428364206500529	0.1516588458879234	0.37369102496293194	0.06946412847229767	0.2699505292225609	0.6282714265050643	0.2542447283232035	0.2030015328332133	0.637067359300678	0.4504408082939395	0.18486397332312043	0.44483324043416345	0.49433019736347683	0.18866102810765598	0.5599124429677539	0.5293093252491551	0.1979398750813304	0.6022588614839035	0.5548875928296888	-0.1507979229528542	0.40800722187857513	0.08711398809638589	-0.21861889471459414	0.2759042719107835	0.29352606726098346	-0.2106573777835454	0.10310365492384917	0.15996756498922496	-0.22126279403271173	0.09633732333889518	0.07688309855915354	-0.22587666507270449	0.04122401130477535	0.06208554892777862	-0.23027140702703586	0.04046265759702656	0.09019063799021536
246	4.169491525423729	0.10865996590980818	0.4939323222935831	0.5493517994285295	0.10796396165603232	0.5931335209098775	1.0424203347688379	0.09338730564259981	0.6479790911378689	1.4843294823860091	0.05314845856160448	0.5108355039462259	1.5154775601011494	0.10989860330144365	0.518762312330547	1.5200749644535878	0.07150834166514002	0.6804719278590934	1.5410672442210231	-0.08290962842689899	0.4787076846964912	0.5549145816617528	-0.12179088110422745	0.5899291225016143	1.039378079785063	-0.13297129522568604	0.6299417702809397	1.484303168175697	-0.10218895502403981	0.4890157628427086	1.512860463326244	-0.1660677447807231	0.5171388604876878	1.507744483514153	-0.1283421149558116	0.6663044177025692	1.5392823370193607	-0.0008954768714411829	0.38155415280568583	-0.0072025852725950785	-0.041557380546183416	0.29759185523258985	-0.22545018383216167	-0.050455930704786635	0.25788548678467077	-0.10396607275398474	0.14365968864595086	0.3853095855376667	0.06981889888148912	0.2695237309644828	0.6272341703917055	0.24413592214696878	0.20305967147669976	0.6361150286644572	0.45167911208934547	0.18557779405437455	0.43570867623564863	0.4833571973244631	0.18815871929269398	0.5579335963787606	0.5177631170949595	0.18791366095947512	0.637809589483203	0.5475447804255507	-0.15580976311772296	0.4200307119551993	0.09075147884328093	-0.2190024361964205	0.27547359039908725	0.2963945700001958	-0.21612450626719368	0.09079443992584006	0.1595438673443229	-0.2212190413756792	0.09648621006437412	0.07468248016993519	-0.2265769533429015	0.03196463632565573	0.06633065806961609	-0.23282226723601088	0.021216555139986066	0.09366664276150984
247	4.186440677966102	0.10888729986799331	0.4934569240905579	0.5532475946492124	0.1076042065713982	0.5901965495877688	1.0411213838972486	0.09340001745942288	0.6479477663729871	1.4845615471574047	0.0531564683973721	0.5105258278770759	1.5153602449506385	0.11449294436542243	0.5019599901612758	1.511410224324663	0.0717411857446827	0.679310563595073	1.5450205720097447	-0.0830452560266153	0.4787804244382586	0.5550039223417602	-0.12257908544940728	0.5896861258615164	1.0432356869577184	-0.13297887620403964	0.6300911415637825	1.484451770533637	-0.1101671047915165	0.4893638472049893	1.5130750567340394	-0.166114102380262	0.5169420313637328	1.507594766760983	-0.12874624200954468	0.6673897284976384	1.5354555168506718	-0.0011237258488060932	0.38189950263584777	-0.0074904463842841865	-0.045990840552776954	0.30819493234415823	-0.23296914275467212	-0.05053229052817697	0.257896085055394	-0.10410603687120536	0.14363983313402298	0.3851343382765102	0.06974111847709988	0.27313549655960895	0.6127746636695253	0.23900448501323365	0.21129679102292517	0.6037168209001342	0.4477362934816941	0.1696093424427721	0.4939488977962209	0.49088185207324575	0.18183432538645924	0.5588226784304804	0.5190006364709641	0.18933380931127877	0.6317196267152727	0.5426298143118823	-0.15566632857920495	0.42056567463759587	0.08762398324846875	-0.21900033804404065	0.27521875295286746	0.2962800345568605	-0.21647039686848524	0.09035765060240522	0.162736132818898	-0.23132612460842986	0.09364009200715054	0.08333952844861696	-0.22671161302999934	0.031234281137265535	0.06904864144853283	-0.2335365275910522	0.009889951177535898	0.1120520715539982
248	4.203389830508475	0.1088603638369219	0.49367628178098266	0.553349586690551	0.1083037176812237	0.592149426422106	1.0462830840007893	0.09340354372784537	0.6480976368230024	1.4847748545788655	0.05030316861174067	0.498223872801159	1.5091620107928636	0.10981657900327524	0.518454687656538	1.5199832150283952	0.06609715717718737	0.6974900360761446	1.5538326394585162	-0.08060186823787358	0.49172351466498054	0.557328797250429	-0.12247318525525396	0.589983960562597	1.0434269844913748	-0.13295690112932818	0.6302392247863109	1.4846337824973248	-0.11037901102523946	0.48932369392639996	1.5129438597946894	-0.1660987598112974	0.516731937377832	1.507452361161138	-0.12838653306398856	0.6665457008305414	1.5394343518761435	-0.0055392455281390906	0.3938700401475113	-0.0074446007020596075	-0.04598617404874104	0.3082629703029889	-0.23306559798508591	-0.05499856208143155	0.2688106493483856	-0.10460562494966223	0.13984762886506946	0.38397628195831324	0.06981319660428636	0.26918798488829426	0.6270122965189611	0.2299316490215825	0.20727802695772857	0.587007630808635	0.437795737445405	0.16541833727670235	0.4839406487704551	0.48364430146585113	0.18132583779403766	0.5340851093856602	0.506755607765646	0.18972927090720096	0.6064510339822793	0.5360275894253171	-0.15585820739165063	0.42046915791065287	0.09095271610127827	-0.21510280504153265	0.27730580039614916	0.29343919221172227	-0.22465635735692235	0.09764455017993308	0.16989643469822066	-0.23633685629695092	0.1036944665051254	0.09472665677524426	-0.2322780346625281	0.0190686916380082	0.07759247759758807	-0.23352493823070705	0.01131800790338229	0.12259663291254054
249	4.220338983050848	0.11195960300514107	0.5062423544538265	0.5555205088657877	0.10836135566189307	0.5920015935535782	1.0463560907126213	0.09379707628353218	0.6467583518058843	1.488613024902648	0.05441584204553742	0.5117350340271288	1.5243459630793936	0.1097743664546359	0.499255929617357	1.5105105005631656	0.07285506005733978	0.680205588357836	1.5547603786891844	-0.08055925326135334	0.4917412836682725	0.5571316243236646	-0.1183374176293773	0.5924356451758587	1.0441837698362615	-0.1330488328034869	0.6303649530156265	1.4847293809558264	-0.11055986413640045	0.49013439684060073	1.5132721102715794	-0.16611265393727154	0.517087828387689	1.5076074746529262	-0.128463434850577	0.6667292754371069	1.5395712702286521	-0.009667022747796872	0.3928483563028947	-0.010457433477321624	-0.04610719807212795	0.308299698608082	-0.23315124547022315	-0.05500838688690256	0.2688359805572881	-0.10458110701246946	0.14381126522810483	0.37106203771448326	0.06938896610519694	0.2691441081108828	0.6269625496665284	0.223249545414124	0.20763224472965555	0.5864689066711971	0.43430875124757085	0.15919830499298238	0.4857890272777762	0.47886185545867627	0.1775420597536359	0.5225802335225578	0.5073175675695225	0.1892564058507351	0.6079879972496647	0.5357657653513312	-0.15582918976506263	0.42180414142575745	0.09430601430153454	-0.21516193522100108	0.2773237417111102	0.2933024472482298	-0.22651595589936482	0.08805994746551563	0.17611481065818438	-0.24774820702692046	0.11182122773971047	0.10181908874116266	-0.23705279924335154	0.015258298545623685	0.07987909954280908	-0.23905371218712262	0.0004054550818356313	0.12466575279610514
250	4.237288135593221	0.10885374884025575	0.4936034899270169	0.5532879952362195	0.10800363620428981	0.5930008441859428	1.0422658767555482	0.0938495527956967	0.6468106806478267	1.488467234145355	0.05363791301966872	0.5098341366856283	1.5194644981045773	0.10983321934870306	0.49946687897688485	1.5103647740346677	0.07166190580894705	0.6795917318909953	1.5450404753778422	-0.07531904028121376	0.4783028927172983	0.5544685009429299	-0.1174818976193427	0.5919593656573078	1.0398555974708918	-0.13787159849076588	0.6457460133347036	1.487680840433998	-0.1093499886268285	0.48990896447534604	1.5092717873725703	-0.1662014353010701	0.5171240745382465	1.507636090436279	-0.12856255243195255	0.6669649325669229	1.5395889234004356	-0.009902002159584724	0.39275227031232623	-0.010441113279554012	-0.04998187277005789	0.30739398512956356	-0.23303671414935037	-0.05503735057416209	0.2691732568819929	-0.10465341889627393	0.1362379182425678	0.3715763100950377	0.06583309763016827	0.2775541799177284	0.6116333195433561	0.2195128176980025	0.21203176528928877	0.5873645116820925	0.4342631032066946	0.15499906648946246	0.47136567709394034	0.468732417084936	0.170892390556168	0.4967163689399999	0.4964200509679372	0.19247770821364843	0.5949451619712124	0.5328352170840622	-0.15601547496870746	0.4219931959778807	0.09441571370946172	-0.21519171165525963	0.2773798773638595	0.29293729704050137	-0.23155856115892953	0.07538931628949519	0.17573261126507703	-0.25896006680522377	0.09836843052470134	0.09831728906553937	-0.24322090220133838	0.015438256782660201	0.0867299029845959	-0.23847509630839123	0.0010613996183038424	0.1360748437217202
251	4.254237288135593	0.10847055154222925	0.49379765121408176	0.5571378537843167	0.10833849260887729	0.5920300095673553	1.0465827758113122	0.09350756398805414	0.6481541934224578	1.4848329188139546	0.05371547135282206	0.5096705807760185	1.5193916418225528	0.11453429608839107	0.5018842326948173	1.5113654365518172	0.06983591773267632	0.7128752115466058	1.5609085245160867	-0.07511174455705141	0.4777849682124121	0.5582153281796891	-0.11750488669081517	0.5923603738796859	1.0400082750951867	-0.1389103460351921	0.6459635992878404	1.4921001170596928	-0.10910658789138418	0.4903273159501185	1.5096598588506493	-0.16618399429812813	0.5171641593712892	1.5076994122911986	-0.12859943835444157	0.6669487390742458	1.5395230999814273	-0.012519172775739855	0.3809952644611033	-0.010275566860455628	-0.054504008880564295	0.3188424106498539	-0.2340051558684134	-0.05274960787912663	0.28020926696092435	-0.10838558513663064	0.13925478522840126	0.3829495056928858	0.06596308984387865	0.2769224203290708	0.6407301782573191	0.21269182738791803	0.21199804057922672	0.5874687302685517	0.43428429629295545	0.15349647747101225	0.4568800644352751	0.457386224187765	0.16389999998515076	0.49344560432753176	0.48413983863337734	0.19201283884043333	0.5963093293679229	0.5276634255269192	-0.156332970595236	0.4217129721131718	0.09778993212745736	-0.2150845827141827	0.27716588450288626	0.2930929055114021	-0.23493546012168826	0.05484120018624334	0.17809340749390284	-0.2575134305466643	0.06869284840126962	0.10670841704868561	-0.2546498336981497	0.013406118249102747	0.08804558996682894	-0.2509230634107698	-0.004235402834178946	0.1379349269554438
